<svg width="90" height="81" viewBox="0 0 90 81" fill="none" xmlns="http://www.w3.org/2000/svg">
<path d="M49.2349 80.4258C48.9769 80.4258 48.7169 80.3758 48.4699 80.2738C47.7219 79.9638 47.2349 79.2348 47.2349 78.4258V2.57384C47.2349 1.76484 47.7219 1.03584 48.4699 0.725841C49.2169 0.415841 50.0769 0.586841 50.6489 1.15984L88.5749 39.0858C88.9499 39.4608 89.1609 39.9698 89.1609 40.4998C89.1609 41.0298 88.9499 41.5388 88.5749 41.9138L50.6499 79.8398C50.2679 80.2228 49.7559 80.4258 49.2349 80.4258ZM2.83691 80.4258C2.57891 80.4258 2.31891 80.3758 2.07191 80.2738C1.32391 79.9638 0.836914 79.2348 0.836914 78.4258V2.57384C0.836914 1.76484 1.32391 1.03584 2.07191 0.725841C2.81891 0.415841 3.67991 0.586841 4.25091 1.15984L42.1769 39.0858C42.5519 39.4608 42.7629 39.9698 42.7629 40.4998C42.7629 41.0298 42.5519 41.5388 42.1769 41.9138L4.25191 79.8398C3.86991 80.2228 3.35791 80.4258 2.83691 80.4258Z" fill="black"/>
</svg>
