<svg width="78" height="72" viewBox="0 0 78 72" fill="none" xmlns="http://www.w3.org/2000/svg">
<path d="M22.7188 0.71875C9.1515 0.71875 0 13.0462 0 26.1875C0 37.0747 4.48287 45.2113 11.3438 51.8125C18.2046 58.4137 27.3312 63.7669 37.375 70.2189L39 71.2814L40.625 70.2189C50.6688 63.7669 59.7954 58.4137 66.6562 51.8125C73.5171 45.2113 78 37.0747 78 26.1875C78 13.0462 68.8485 0.71875 55.2812 0.71875C48.1645 0.71875 42.5404 3.72648 39 6.53125C35.4596 3.72648 29.8355 0.71875 22.7188 0.71875ZM22.7188 6.71875C29.165 6.71875 34.9326 10.6088 36.875 12.5625L39 14.6875L41.125 12.5625C43.0674 10.6088 48.835 6.71875 55.2812 6.71875C65.2057 6.71875 72 15.7498 72 26.1875C72 35.5107 68.5903 41.6402 62.5 47.5C56.7621 53.0207 48.4196 58.109 39 64.125C29.5804 58.109 21.2379 53.0207 15.5 47.5C9.40966 41.6402 6 35.5107 6 26.1875C6 15.7498 12.7943 6.71875 22.7188 6.71875Z" fill="black"/>
</svg>
