<svg width="68" height="88" viewBox="0 0 68 88" fill="none" xmlns="http://www.w3.org/2000/svg">
<path d="M65.667 87.1588H43.989C42.885 87.1588 41.989 86.2628 41.989 85.1588V2.84082C41.989 1.73682 42.885 0.84082 43.989 0.84082H65.667C66.771 0.84082 67.667 1.73682 67.667 2.84082V85.1588C67.667 86.2638 66.771 87.1588 65.667 87.1588ZM24.011 87.1588H2.33301C1.22901 87.1588 0.333008 86.2628 0.333008 85.1588V2.84082C0.333008 1.73682 1.22901 0.84082 2.33301 0.84082H24.011C25.115 0.84082 26.011 1.73682 26.011 2.84082V85.1588C26.011 86.2638 25.115 87.1588 24.011 87.1588Z" fill="black"/>
</svg>
