<svg width="90" height="81" viewBox="0 0 90 81" fill="none" xmlns="http://www.w3.org/2000/svg">
<path d="M87.1629 80.4261C86.6419 80.4261 86.1309 80.2231 85.7479 79.8401L47.8219 41.9141C47.4469 41.5391 47.2359 41.0301 47.2359 40.5001C47.2359 39.9701 47.4469 39.4611 47.8219 39.0861L85.7479 1.16011C86.3189 0.588109 87.1809 0.416109 87.9269 0.726109C88.6749 1.03611 89.1619 1.76511 89.1619 2.57411V78.4261C89.1619 79.2351 88.6749 79.9641 87.9269 80.2741C87.6799 80.3761 87.4199 80.4261 87.1629 80.4261ZM40.7649 80.4261C40.2439 80.4261 39.7329 80.2231 39.3499 79.8401L1.42389 41.9141C1.04889 41.5391 0.837891 41.0301 0.837891 40.5001C0.837891 39.9701 1.04889 39.4611 1.42389 39.0861L39.3499 1.16011C39.9209 0.588109 40.7829 0.416109 41.5289 0.726109C42.2769 1.03611 42.7639 1.76511 42.7639 2.57411V78.4261C42.7639 79.2351 42.2769 79.9641 41.5289 80.2741C41.2819 80.3761 41.0219 80.4261 40.7649 80.4261Z" fill="black"/>
</svg>
