<svg width="64" height="47" viewBox="0 0 64 47" fill="none" xmlns="http://www.w3.org/2000/svg">
<path d="M36.93 32.43C34.86 32.43 30.02 32.43 24 32.81V27.6C24 26.94 23.46 26.4 22.8 26.4C22.14 26.4 21.6 26.94 21.6 27.6V32.98C14.33 33.44 7.11 34.47 0 36.06V28.06C11.2 21.84 24.5 21.6 26.51 21.6H31.85L36.93 32.43ZM3.88 6.14C7.83 2.92 12.56 0.8 17.6 0L21.08 8.8C15.46 8.99 9.95 10.39 4.93 12.91C4.34 13.21 4.1 13.93 4.4 14.52C4.7 15.11 5.42 15.35 6.01 15.05C10.97 12.57 16.44 11.25 22 11.2L25.2 19.2C21.08 19.32 10.09 20.14 0.03 25.34V10.56C1.07 8.89 2.37 7.4 3.88 6.14ZM34.4 46.4V40.4C34.4 39.74 33.86 39.2 33.2 39.2C32.54 39.2 32 39.74 32 40.4V46.4H24V40.4C24 39.74 23.46 39.2 22.8 39.2C22.14 39.2 21.6 39.74 21.6 40.4V46.4H0V38.54C16.34 34.48 37.76 34.84 37.98 34.85H38.05L43.47 46.4H34.4ZM64 46.4H46.12L37.87 28.8H46.8C47.46 28.8 48 28.26 48 27.6V22C50.73 21.95 58.01 22.19 64 25.45V46.4Z" fill="rgb(37 99 235)"/>
</svg>
