<svg width="28" height="28" viewBox="0 0 28 28" fill="none" xmlns="http://www.w3.org/2000/svg">
<path d="M4.59 25.0298C6.42 17.5898 6.37 17.9598 6.27 17.8798L0.759998 13.2198C-0.700002 11.9898 0.0799977 9.59979 1.98 9.46979C9.66 8.90979 9.25 8.97979 9.3 8.85979L12.03 2.16979C12.75 0.399785 15.26 0.399785 15.98 2.16979C18.89 9.29979 18.7 8.92979 18.82 8.93979L26.03 9.46979C27.93 9.60979 28.71 11.9998 27.25 13.2298L21.73 17.8898C21.73 17.8898 21.67 17.9698 21.69 18.0198L23.42 25.0398C23.88 26.8998 21.84 28.3698 20.23 27.3598C13.66 23.2898 14.06 23.4798 13.95 23.5498L7.81 27.3598C6.2 28.3598 4.16 26.8998 4.61 25.0398L4.59 25.0298ZM14 2.82978C13.86 2.82978 14.15 2.24979 11.15 9.59979C10.84 10.3598 10.15 10.8598 9.33 10.9198C1.5 11.4898 2.05 11.4098 2.01 11.5398C1.97 11.6698 1.58 11.2798 7.57 16.3398C8.19 16.8698 8.46 17.6898 8.26 18.4798C6.37 26.1798 6.48 25.5598 6.59 25.6398C6.7 25.7198 6.2 25.9798 12.88 21.8398C13.57 21.4098 14.43 21.4098 15.13 21.8398C21.81 25.9798 21.31 25.7198 21.42 25.6398C21.53 25.5598 21.64 26.1998 19.75 18.4798C19.55 17.6898 19.82 16.8698 20.44 16.3398C26.44 11.2698 26.04 11.6598 26 11.5398C25.96 11.4098 26.5 11.4898 18.68 10.9198C17.87 10.8598 17.17 10.3498 16.86 9.59979L14.13 2.90978C14.13 2.90978 14.1 2.82978 14.01 2.82978H14Z" fill="black"/>
</svg>
