<svg width="100" height="100" viewBox="0 0 100 100" fill="none" xmlns="http://www.w3.org/2000/svg">
<path d="M100 0H74.995L50 29.998L25 0H0V24.999L31.966 51.639L22.066 63.524L19.274 60.733C18.297 59.756 16.714 59.756 15.737 60.733C14.76 61.71 14.76 63.292 15.737 64.268L18.848 67.379L3.841 85.391C2.874 84.776 1.576 84.889 0.733 85.733C-0.244 86.71 -0.244 88.292 0.733 89.268L10.729 99.268C11.568 100.107 13.159 100.373 14.264 99.268C15.11 98.425 15.222 97.13 14.608 96.164L32.619 81.152L35.734 84.268C36.508 85.041 38.11 85.429 39.271 84.268C40.248 83.291 40.248 81.709 39.271 80.733L36.476 77.939L50 66.666L63.523 77.938L60.728 80.732C59.751 81.709 59.751 83.291 60.728 84.267C61.89 85.428 63.49 85.04 64.264 84.267L67.38 81.151L85.392 96.163C84.779 97.13 84.89 98.425 85.734 99.267C86.839 100.372 88.429 100.106 89.271 99.267L99.267 89.267C100.244 88.29 100.244 86.708 99.267 85.732C98.42 84.888 97.122 84.775 96.158 85.39L81.147 67.379L84.258 64.268C85.235 63.291 85.235 61.709 84.258 60.733C83.281 59.757 81.7 59.756 80.724 60.733L77.933 63.524L68.033 51.639L100 24.999V0ZM31.038 72.498L27.501 68.963L38.983 57.486L42.838 60.699L31.038 72.498ZM72.496 68.963L68.964 72.498L28.227 31.768L31.764 28.233L72.496 68.963ZM60.7 42.838L57.486 38.983L68.233 28.233L71.772 31.768L60.7 42.838Z" fill="#615cfd"/>
</svg>
