<svg width="58" height="76" viewBox="0 0 58 76" fill="none" xmlns="http://www.w3.org/2000/svg">
<path d="M29 31.84C37.7923 31.84 44.92 24.7124 44.92 15.92C44.92 7.12763 37.7923 0 29 0C20.2076 0 13.08 7.12763 13.08 15.92C13.08 24.7124 20.2076 31.84 29 31.84Z" fill="black"/>
<path d="M57.22 57.6802C57.6656 59.2038 57.6661 60.8231 57.2214 62.3469C56.7766 63.8708 55.9052 65.2356 54.71 66.2802C47.611 72.5416 38.4707 75.9966 29.005 75.9966C19.5393 75.9966 10.399 72.5416 3.3 66.2802C2.09563 65.2334 1.21772 63.8623 0.77091 62.3304C0.324104 60.7985 0.327261 59.1704 0.780004 57.6402C2.65611 51.6233 6.40623 46.3636 11.483 42.6287C16.5598 38.8938 22.6974 36.8794 29 36.8794C35.3026 36.8794 41.4402 38.8938 46.517 42.6287C51.5938 46.3636 55.3439 51.6233 57.22 57.6402V57.6802Z" fill="black"/>
</svg>
