{"asset":{"version":"2.0","generator":"VECTARY"},"nodes":[{"translation":[0,0,0],"scale":[0.01,0.01,0.01],"rotation":[0,0,0,1],"name":"vinyl-record-fbx/source/Vinyl_Record_Animated_v1_Scene","children":[1]},{"translation":[0,254.38490295410156,-8.518953323364258],"scale":[100,100,100],"rotation":[0,0,0,1],"name":"Circle.001","children":[2,3]},{"translation":[0,0,0],"scale":[1,1,1],"rotation":[5.337495908106362e-17,1.1565458498247504e-17,-0.2117688081665741,0.9773197899805921],"name":"Buffer Object","mesh":0},{"translation":[0,0,0],"scale":[1,1,1],"rotation":[0,0,0,1],"name":"Circle","mesh":1}],"materials":[{"pbrMetallicRoughness":{"baseColorFactor":[1,1,1,1],"baseColorTexture":{"index":0,"extensions":{"KHR_texture_transform":{"offset":[-0.003,-0.01],"scale":[1,1],"rotation":0}},"texCoord":0},"metallicFactor":0,"roughnessFactor":1},"name":"Material.001","emissiveFactor":[0,0,0],"extensions":{},"alphaMode":"OPAQUE","doubleSided":false},{"pbrMetallicRoughness":{"baseColorFactor":[1,1,1,1],"baseColorTexture":{"index":1,"extensions":{"KHR_texture_transform":{"offset":[0,0],"scale":[1,1],"rotation":0}},"texCoord":0},"metallicFactor":0,"roughnessFactor":0.2},"name":"Material","emissiveFactor":[0,0,0],"extensions":{},"alphaMode":"OPAQUE","doubleSided":false}],"textures":[{"sampler":0,"source":0},{"sampler":0,"source":1}],"images":[{"uri":"smca-overlay.jpg","mimeType":"image/jpeg"},{"uri":"base_color_texture.jpg","mimeType":"image/jpeg"}],"samplers":[{"wrapS":10497,"wrapT":10497}],"meshes":[{"primitives":[{"mode":4,"attributes":{"POSITION":1,"NORMAL":2,"TEXCOORD_0":3},"material":0,"indices":0}]},{"primitives":[{"mode":4,"attributes":{"POSITION":5,"NORMAL":6,"TEXCOORD_0":7},"material":1,"indices":4}]}],"accessors":[{"bufferView":0,"byteOffset":0,"componentType":5125,"count":6144,"type":"SCALAR"},{"bufferView":1,"byteOffset":0,"componentType":5126,"count":1684,"max":[1.0975053310394287,1.0953891277313232,0.010539998300373554],"min":[-1.0975053310394287,-1.0996215343475342,-0.010574044659733772],"type":"VEC3"},{"bufferView":2,"byteOffset":0,"componentType":5126,"count":1684,"type":"VEC3"},{"bufferView":3,"byteOffset":0,"componentType":5126,"count":1684,"type":"VEC2"},{"bufferView":4,"byteOffset":0,"componentType":5125,"count":21504,"type":"SCALAR"},{"bufferView":5,"byteOffset":0,"componentType":5126,"count":3968,"max":[2.235447406768799,2.2333312034606934,0.009949909523129463],"min":[-2.235447406768799,-2.2375636100769043,-0.009949909523129463],"type":"VEC3"},{"bufferView":6,"byteOffset":0,"componentType":5126,"count":3968,"type":"VEC3"},{"bufferView":7,"byteOffset":0,"componentType":5126,"count":3968,"type":"VEC2"},{"bufferView":8,"byteOffset":0,"componentType":5126,"count":240,"max":[7.9666666984558105],"min":[0],"type":"SCALAR"},{"bufferView":9,"byteOffset":0,"componentType":5126,"count":240,"max":[2.1855694143368964e-8,0,0,1],"min":[-2.1855694143368964e-8,-2.1855221632449684e-8,-0.9999784231185913,-1],"type":"VEC4"}],"bufferViews":[{"buffer":0,"byteOffset":0,"byteLength":24576,"target":34963},{"buffer":0,"byteOffset":24576,"byteLength":20208,"target":34962},{"buffer":0,"byteOffset":44784,"byteLength":20208,"target":34962},{"buffer":0,"byteOffset":64992,"byteLength":13472,"target":34962},{"buffer":0,"byteOffset":78464,"byteLength":86016,"target":34963},{"buffer":0,"byteOffset":164480,"byteLength":47616,"target":34962},{"buffer":0,"byteOffset":212096,"byteLength":47616,"target":34962},{"buffer":0,"byteOffset":259712,"byteLength":31744,"target":34962},{"buffer":0,"byteOffset":291456,"byteLength":960},{"buffer":0,"byteOffset":292416,"byteLength":3840}],"scene":0,"scenes":[{"nodes":[0],"name":"Project Name"}],"animations":[{"channels":[{"sampler":0,"target":{"node":1,"path":"rotation"}}],"samplers":[{"interpolation":"LINEAR","input":8,"output":9}],"name":"Circle.001|Circle.001Action"}],"extensionsUsed":["KHR_texture_transform"],"buffers":[{"byteLength":296256,"uri":"ProjectName.bin"}]}